# File produced by Open Asset Import Library (http://www.assimp.sf.net)
# (assimp v3.2.202087883)

mtllib model_normalized.mtl

# 80 vertex positions
v 0.222641 0.007222 -0.046178
v -0.224675 0.004206 -0.048493
v 0.224955 0.004206 -0.048493
v -0.222362 0.007222 -0.046178
v -0.227692 0.001891 -0.051509
v 0.224955 0.004206 -0.020299
v 0.235254 0.029069 -0.058791
v 0.221185 0.010735 -0.044722
v -0.224675 0.004206 -0.020299
v -0.224675 0.024803 -0.048493
v 0.227971 0.001891 -0.051509
v -0.227692 0.001891 -0.020299
v -0.227692 0.027118 -0.051509
v 0.222641 0.007222 -0.020299
v -0.220906 0.010735 -0.044722
v -0.222362 0.007222 -0.020299
v -0.222362 0.021786 -0.046178
v -0.231205 0.000436 -0.055022
v -0.231205 0.000436 -0.020299
v -0.231205 0.028572 -0.055022
v 0.235254 0.029069 -0.020299
v 0.227971 0.001891 -0.020299
v 0.231484 0.000436 -0.055022
v 0.220689 0.014504 -0.044226
v 0.221185 0.010735 -0.020299
v 0.224955 0.024803 -0.048493
v -0.224675 0.024803 -0.020299
v 0.231484 0.000436 -0.020299
v 0.227971 0.027118 -0.051509
v -0.227692 0.027118 -0.020299
v -0.220906 0.010735 -0.020299
v 0.235254 -0.000061 -0.058791
v 0.221185 0.018274 -0.044722
v -0.220410 0.014504 -0.044226
v -0.220906 0.018274 -0.044722
v 0.222641 0.021786 -0.046178
v -0.222362 0.021786 -0.020299
v -0.234974 -0.000061 -0.058791
v -0.234974 -0.000061 -0.020299
v 0.235254 -0.000061 -0.020299
v 0.231484 0.028572 -0.055022
v -0.231205 0.028572 -0.020299
v 0.220689 0.014504 -0.020299
v 0.235676 0.029589 -0.059240
v -0.234552 0.029589 -0.059240
v 0.235676 0.000460 -0.059240
v 0.221185 0.018274 -0.020299
v -0.220410 0.014504 -0.020299
v 0.227971 0.027118 -0.020299
v 0.224955 0.024803 -0.020299
v 0.222641 0.021786 -0.020299
v -0.234974 0.029069 -0.058791
v 0.231484 0.028572 -0.020299
v -0.234552 0.000460 -0.059240
v -0.220906 0.018274 -0.020299
v 0.309101 -0.309139 -0.020299
v 0.309101 0.038953 -0.020299
v -0.234974 0.029069 -0.020299
v -0.309894 0.038953 -0.020299
v 0.309101 0.038953 -0.009895
v -0.309894 -0.309139 -0.020299
v 0.309101 -0.309139 0.000508
v -0.309894 -0.309139 0.000508
v -0.309894 0.038953 -0.009895
v 0.309101 0.164210 0.000508
v -0.309894 0.047326 -0.009895
v 0.309101 0.047326 -0.009895
v 0.309101 0.047326 -0.020299
v -0.309894 0.164210 0.000508
v 0.309101 0.164210 -0.020299
v -0.309894 0.164210 -0.020299
v -0.309894 0.047326 -0.020299
v -0.289087 -0.288332 0.567486
v -0.289087 0.143404 0.000508
v -0.289087 -0.288332 0.000508
v -0.289087 0.143404 0.567486
v 0.288295 -0.288332 0.000508
v 0.288295 -0.288332 0.567486
v 0.288295 0.143404 0.567486
v 0.288295 0.143404 0.000508

# 16 UV coordinates
vt 0 0 0
vt 0.119303 0.652961 0
vt 0.878966 0.7145 0
vt 0.119303 0.7145 0
vt 0.878966 0.652961 0
vt 0 0.73538 0
vt 1 0.73538 0
vt 1 0 0
vt 0 0.021978 0
vt 1 0.021978 0
vt 1 0.753071 0
vt 0 0.753071 0
vt -1 0.021978 0
vt -1 0 0
vt 1 1 0
vt 0 1 0

# 72 vertex normals
vn 0 -0.5 0.866025
vn 0 -0.707107 0.707107
vn 0 0.707107 -0.707107
vn 0 0.5 -0.866025
vn 0 -0.866025 0.5
vn 0 0.866025 -0.5
vn -0.707107 -0.707107 0
vn -0.866025 -0.5 0
vn 0.707107 0 0.707107
vn -0.193007 0.90386 0.381818
vn 0 -0.258819 0.965926
vn 0 0.258819 -0.965926
vn -0.707107 0.707107 0
vn -0.866025 0.5 0
vn -0.707107 0 0.707107
vn -0.5 0.866025 0
vn -0.442093 -0.893911 -0.074007
vn -0.5 -0.866025 0
vn -0.965926 -0.258819 0
vn 0 -0.965926 0.258819
vn 0 0.965926 -0.258819
vn -0.258819 0.965926 0
vn -0.303184 -0.951714 0.048173
vn 0 0 1
vn 0 -0 -1
vn -0.965926 0.258819 0
vn 0 0.707107 0.707107
vn 0.442093 0.893911 0.074007
vn 0 -0.707107 -0.707107
vn 0 0.5 0.866025
vn 0 -0.5 -0.866025
vn -0.074007 0.893911 0.442093
vn 0.303184 0.951714 -0.048173
vn 0.074007 -0.893911 -0.442093
vn -0.258819 -0.965926 0
vn -0.382683 0 0.92388
vn -1 0 0
vn 0 -0.991445 0.130526
vn 0 0.991445 -0.130526
vn -0.130526 0.991445 0
vn 0.382683 0 0.92388
vn 0.048173 0.951714 0.303184
vn -0.048173 -0.951714 -0.303184
vn -0.130526 -0.991445 0
vn 0 0.258819 0.965926
vn 0 -0.258819 -0.965926
vn 0.078386 -0.957275 0.278354
vn -0.078386 0.957275 -0.278354
vn -0.75184 0.659346 0
vn 0.193007 -0.90386 -0.381818
vn 1 -0 -0
vn 0.659346 -0.75184 -0
vn 0 -1 -0
vn 0 1 0
vn 0.707107 0.707107 0
vn 0.866025 0.5 0
vn -0.707107 0 -0.707107
vn 0.866025 -0.5 0
vn 0.707107 -0.707107 0
vn 0.707107 0 -0.707107
vn 0.5 -0.866025 0
vn 0.5 0.866025 0
vn 0.965926 0.258819 0
vn 0.258819 -0.965926 0
vn 0.965926 -0.258819 0
vn 0.258819 0.965926 0
vn 0.382683 0 -0.92388
vn 0.130526 -0.991445 0
vn -0.382683 0 -0.92388
vn 0.130526 0.991445 0
vn 0.75184 -0.659346 -0
vn -0.659346 0.75184 0

# Mesh 'mesh1_mesh1-geometry' with 206 faces
g mesh1_mesh1-geometry
usemtl material_0_24
f  1/1/1 2/1/2 3/1/2
f  2/1/2 1/1/1 4/1/1
f  3/1/3 2/1/3 1/1/4
f  4/1/4 1/1/4 2/1/3
f  5/1/5 3/1/2 2/1/2
f  2/1/3 3/1/3 5/1/6
f  6/1/7 1/1/8 3/1/7
f  3/1/9 7/1/10 1/1/9
f  8/1/11 4/1/1 1/1/1
f  1/1/4 4/1/4 8/1/12
f  2/1/13 9/1/13 4/1/14
f  4/1/15 10/1/15 2/1/15
f  3/1/2 5/1/5 11/1/5
f  11/1/6 5/1/6 3/1/3
f  5/1/16 12/1/16 2/1/13
f  2/1/15 13/1/17 5/1/15
f  1/1/8 6/1/7 14/1/8
f  11/1/18 6/1/7 3/1/7
f  11/1/9 7/1/10 3/1/9
f  1/1/9 7/1/10 8/1/9
f  4/1/1 8/1/11 15/1/11
f  15/1/12 8/1/12 4/1/4
f  14/1/8 8/1/19 1/1/8
f  16/1/14 4/1/14 9/1/13
f  9/1/13 2/1/13 12/1/16
f  10/1/15 13/1/17 2/1/15
f  17/1/15 10/1/15 4/1/15
f  18/1/20 11/1/5 5/1/5
f  5/1/6 11/1/6 18/1/21
f  12/1/16 5/1/16 19/1/22
f  13/1/17 20/1/23 5/1/15
f  6/1/24 21/1/24 14/1/24
f  14/1/25 21/1/25 6/1/25
f  14/1/24 16/1/24 6/1/24
f  6/1/7 11/1/18 22/1/18
f  23/1/9 7/1/10 11/1/9
f  8/1/9 7/1/10 24/1/9
f  24/1/24 15/1/11 8/1/11
f  8/1/12 15/1/12 24/1/25
f  4/1/14 16/1/14 15/1/26
f  15/1/15 17/1/15 4/1/15
f  8/1/19 14/1/8 25/1/19
f  16/1/24 9/1/24 6/1/24
f  9/1/24 12/1/24 22/1/24
f  26/1/27 13/1/28 10/1/27
f  10/1/29 13/1/17 26/1/29
f  10/1/7 27/1/7 13/1/17
f  17/1/30 26/1/27 10/1/27
f  10/1/29 26/1/29 17/1/31
f  10/1/7 17/1/8 27/1/7
f  11/1/5 18/1/20 23/1/20
f  23/1/21 18/1/21 11/1/6
f  18/1/22 19/1/22 5/1/16
f  5/1/15 20/1/23 18/1/15
f  12/1/24 19/1/24 28/1/24
f  29/1/32 20/1/33 13/1/28
f  13/1/17 20/1/23 29/1/34
f  13/1/17 30/1/18 20/1/23
f  22/1/24 21/1/24 6/1/24
f  6/1/25 21/1/25 22/1/25
f  14/1/24 21/1/24 25/1/24
f  25/1/25 21/1/25 14/1/25
f  31/1/24 16/1/24 14/1/24
f  23/1/35 22/1/18 11/1/18
f  6/1/24 9/1/24 22/1/24
f  7/1/10 23/1/9 32/1/36
f  24/1/9 7/1/10 33/1/9
f  25/1/19 24/1/37 8/1/19
f  15/1/11 24/1/24 34/1/24
f  34/1/25 24/1/25 15/1/12
f  31/1/26 15/1/26 16/1/14
f  35/1/15 17/1/15 15/1/15
f  25/1/24 31/1/24 14/1/24
f  22/1/24 12/1/24 28/1/24
f  13/1/28 26/1/27 29/1/32
f  29/1/34 26/1/29 13/1/17
f  30/1/18 13/1/17 27/1/7
f  26/1/27 17/1/30 36/1/30
f  36/1/31 17/1/31 26/1/29
f  37/1/8 27/1/7 17/1/8
f  38/1/38 23/1/20 18/1/20
f  18/1/21 23/1/21 38/1/39
f  19/1/22 18/1/22 39/1/40
f  18/1/15 20/1/23 38/1/41
f  28/1/24 19/1/24 40/1/24
f  20/1/33 29/1/32 41/1/42
f  41/1/43 29/1/34 20/1/23
f  42/1/35 20/1/23 30/1/18
f  28/1/24 21/1/24 22/1/24
f  22/1/25 21/1/25 28/1/25
f  25/1/24 21/1/24 43/1/24
f  43/1/25 21/1/25 25/1/25
f  22/1/18 23/1/35 28/1/35
f  32/1/44 28/1/35 23/1/35
f  23/1/20 38/1/38 32/1/38
f  32/1/39 38/1/39 23/1/21
f  40/1/37 7/1/10 32/1/36
f  44/1/24 45/1/24 46/1/24
f  33/1/9 7/1/10 36/1/9
f  33/1/45 34/1/24 24/1/24
f  24/1/25 34/1/25 33/1/46
f  24/1/37 47/1/26 33/1/26
f  24/1/37 25/1/19 43/1/37
f  15/1/26 31/1/26 34/1/37
f  34/1/15 35/1/15 15/1/15
f  35/1/45 36/1/30 17/1/30
f  17/1/31 36/1/31 35/1/46
f  17/1/8 35/1/19 37/1/8
f  48/1/24 31/1/24 25/1/24
f  26/1/13 49/1/16 29/1/32
f  26/1/9 7/1/10 29/1/32
f  30/1/24 27/1/24 50/1/24
f  36/1/14 50/1/13 26/1/13
f  36/1/9 7/1/10 26/1/9
f  27/1/24 37/1/24 51/1/24
f  38/1/40 39/1/40 18/1/22
f  39/1/24 40/1/24 19/1/24
f  52/1/47 38/1/41 20/1/23
f  21/1/24 28/1/24 40/1/24
f  40/1/25 28/1/25 21/1/25
f  28/1/35 32/1/44 40/1/44
f  29/1/32 53/1/22 41/1/42
f  29/1/32 7/1/10 41/1/42
f  41/1/42 52/1/48 20/1/33
f  20/1/23 52/1/47 41/1/43
f  20/1/23 42/1/35 52/1/47
f  42/1/24 30/1/24 49/1/24
f  43/1/24 21/1/24 47/1/24
f  47/1/25 21/1/25 43/1/25
f  43/1/24 48/1/24 25/1/24
f  54/1/24 46/1/24 45/1/24
f  7/1/10 40/1/37 21/1/49
f  52/1/48 41/1/42 7/1/10
f  7/1/50 41/1/43 52/1/47
f  36/1/30 35/1/45 33/1/45
f  33/1/46 35/1/46 36/1/31
f  33/1/26 51/1/14 36/1/14
f  34/1/24 33/1/45 35/1/45
f  35/1/46 33/1/46 34/1/25
f  47/1/26 24/1/37 43/1/37
f  51/1/14 33/1/26 47/1/26
f  48/1/37 34/1/37 31/1/26
f  35/1/19 34/1/37 55/1/19
f  55/1/19 37/1/8 35/1/19
f  49/1/16 26/1/13 50/1/13
f  53/1/22 29/1/32 49/1/16
f  50/1/24 27/1/24 51/1/24
f  49/1/24 30/1/24 50/1/24
f  50/1/13 36/1/14 51/1/14
f  51/1/24 37/1/24 47/1/24
f  38/1/41 52/1/47 39/1/51
f  39/1/24 56/1/24 40/1/24
f  21/1/24 40/1/24 57/1/24
f  21/1/49 41/1/42 53/1/22
f  41/1/42 21/1/49 7/1/10
f  58/1/52 52/1/47 42/1/35
f  53/1/24 42/1/24 49/1/24
f  47/1/24 21/1/24 51/1/24
f  51/1/25 21/1/25 47/1/25
f  47/1/24 55/1/24 43/1/24
f  55/1/24 48/1/24 43/1/24
f  48/1/37 55/1/19 34/1/37
f  37/1/24 55/1/24 47/1/24
f  50/1/24 21/1/24 49/1/24
f  49/1/25 21/1/25 50/1/25
f  49/1/24 21/1/24 53/1/24
f  53/1/25 21/1/25 49/1/25
f  51/1/24 21/1/24 50/1/24
f  50/1/25 21/1/25 51/1/25
f  58/1/52 39/1/51 52/1/47
f  57/1/24 40/1/24 56/1/24
f  39/1/24 59/1/24 56/1/24
f  59/1/24 21/1/24 57/1/24
f  21/1/24 58/1/24 53/1/24
f  58/1/24 42/1/24 53/1/24
f  58/1/24 59/1/24 39/1/24
f  57/1/37 56/1/37 60/1/37
f  61/1/24 56/1/24 59/1/24
f  21/1/24 59/1/24 58/1/24
f  57/1/53 60/1/53 59/1/53
f  62/1/37 60/1/37 56/1/37
f  61/1/54 63/1/54 56/1/54
f  61/1/51 59/1/51 63/1/51
f  64/1/53 59/1/53 60/1/53
f  65/1/37 60/1/37 62/1/37
f  62/1/54 56/1/54 63/1/54
f  64/1/51 63/1/51 59/1/51
f  64/1/24 60/1/24 66/1/24
f  60/1/37 65/1/37 67/1/37
f  65/1/24 63/1/24 62/1/24
f  62/1/25 63/1/25 65/1/25
f  66/1/51 63/1/51 64/1/51
f  67/1/24 66/1/24 60/1/24
f  67/1/37 65/1/37 68/1/37
f  63/1/24 65/1/24 69/1/24
f  69/1/25 65/1/25 63/1/25
f  63/1/51 66/1/51 69/1/51
f  67/1/54 68/1/54 66/1/54
f  70/1/37 68/1/37 65/1/37
f  69/1/53 71/1/53 65/1/53
f  69/1/51 66/1/51 71/1/51
f  72/1/54 66/1/54 68/1/54
f  70/1/24 71/1/24 68/1/24
f  70/1/53 65/1/53 71/1/53
f  72/1/51 71/1/51 66/1/51
f  72/1/24 68/1/24 71/1/24

# Mesh 'mesh1_mesh1-geometry' with 74 faces
g mesh1_mesh1-geometry
usemtl material_3_24
f  3/1/55 1/1/56 6/1/55
f  1/1/57 7/1/50 3/1/57
f  4/1/58 9/1/59 2/1/59
f  2/1/60 10/1/60 4/1/60
f  2/1/59 12/1/61 5/1/61
f  5/1/60 13/1/28 2/1/60
f  14/1/56 6/1/55 1/1/56
f  3/1/55 6/1/55 11/1/62
f  3/1/57 7/1/50 11/1/57
f  8/1/57 7/1/50 1/1/57
f  1/1/56 8/1/63 14/1/56
f  9/1/59 4/1/58 16/1/58
f  12/1/61 2/1/59 9/1/59
f  2/1/60 13/1/28 10/1/60
f  4/1/60 10/1/60 17/1/60
f  19/1/64 5/1/61 12/1/61
f  5/1/60 20/1/33 13/1/28
f  22/1/62 11/1/62 6/1/55
f  11/1/57 7/1/50 23/1/57
f  24/1/57 7/1/50 8/1/57
f  15/1/65 16/1/58 4/1/58
f  4/1/60 17/1/60 15/1/60
f  25/1/63 14/1/56 8/1/63
f  13/1/28 27/1/55 10/1/55
f  27/1/55 17/1/56 10/1/55
f  5/1/61 19/1/64 18/1/64
f  18/1/60 20/1/33 5/1/60
f  20/1/33 30/1/62 13/1/28
f  11/1/62 22/1/62 23/1/66
f  32/1/67 23/1/57 7/1/50
f  33/1/57 7/1/50 24/1/57
f  8/1/63 24/1/51 25/1/63
f  16/1/58 15/1/65 31/1/65
f  15/1/60 17/1/60 35/1/60
f  27/1/55 13/1/28 30/1/62
f  17/1/56 27/1/55 37/1/56
f  39/1/68 18/1/64 19/1/64
f  38/1/69 20/1/33 18/1/60
f  30/1/62 20/1/33 42/1/66
f  28/1/66 23/1/66 22/1/62
f  23/1/66 28/1/66 32/1/70
f  32/1/67 7/1/50 40/1/51
f  36/1/57 7/1/50 33/1/57
f  33/1/65 47/1/65 24/1/51
f  43/1/51 25/1/63 24/1/51
f  34/1/51 31/1/65 15/1/65
f  15/1/60 35/1/60 34/1/60
f  37/1/56 35/1/63 17/1/56
f  29/1/34 49/1/61 26/1/59
f  29/1/34 7/1/50 26/1/57
f  26/1/59 50/1/59 36/1/58
f  26/1/57 7/1/50 36/1/57
f  18/1/64 39/1/68 38/1/68
f  20/1/33 38/1/69 52/1/48
f  40/1/70 32/1/70 28/1/66
f  41/1/43 53/1/64 29/1/34
f  41/1/43 7/1/50 29/1/34
f  52/1/48 42/1/66 20/1/33
f  21/1/71 40/1/51 7/1/50
f  36/1/58 51/1/58 33/1/65
f  43/1/51 24/1/51 47/1/65
f  47/1/65 33/1/65 51/1/58
f  31/1/65 34/1/51 48/1/51
f  55/1/63 34/1/51 35/1/63
f  35/1/63 37/1/56 55/1/63
f  50/1/59 26/1/59 49/1/61
f  49/1/61 29/1/34 53/1/64
f  51/1/58 36/1/58 50/1/59
f  39/1/37 52/1/48 38/1/69
f  53/1/64 41/1/43 21/1/71
f  7/1/50 21/1/71 41/1/43
f  42/1/66 52/1/48 58/1/72
f  34/1/51 55/1/63 48/1/51
f  52/1/48 39/1/37 58/1/72

# Mesh 'mesh1_mesh1-geometry' with 40 faces
g mesh1_mesh1-geometry
usemtl material_2_24
f  6/1/25 16/1/25 14/1/25
f  6/1/25 9/1/25 16/1/25
f  22/1/25 12/1/25 9/1/25
f  28/1/25 19/1/25 12/1/25
f  14/1/25 16/1/25 31/1/25
f  22/1/25 9/1/25 6/1/25
f  14/1/25 31/1/25 25/1/25
f  28/1/25 12/1/25 22/1/25
f  40/1/25 19/1/25 28/1/25
f  25/1/25 31/1/25 48/1/25
f  50/1/25 27/1/25 30/1/25
f  51/1/25 37/1/25 27/1/25
f  19/1/25 40/1/25 39/1/25
f  49/1/25 30/1/25 42/1/25
f  25/1/25 48/1/25 43/1/25
f  51/1/25 27/1/25 50/1/25
f  50/1/25 30/1/25 49/1/25
f  47/1/25 37/1/25 51/1/25
f  49/1/25 42/1/25 53/1/25
f  43/1/25 55/1/25 47/1/25
f  43/1/25 48/1/25 55/1/25
f  47/1/25 55/1/25 37/1/25
f  53/1/25 58/1/25 21/1/25
f  53/1/25 42/1/25 58/1/25
f  60/1/51 56/1/51 57/1/51
f  56/1/51 60/1/51 62/1/51
f  56/1/53 63/1/53 61/1/53
f  63/1/37 59/1/37 61/1/37
f  62/1/51 60/1/51 65/1/51
f  63/1/53 56/1/53 62/1/53
f  59/1/37 63/1/37 64/1/37
f  67/1/51 65/1/51 60/1/51
f  64/1/37 63/1/37 66/1/37
f  68/1/51 65/1/51 67/1/51
f  69/1/37 66/1/37 63/1/37
f  65/1/51 68/1/51 70/1/51
f  65/1/54 71/1/54 69/1/54
f  71/1/37 66/1/37 69/1/37
f  71/1/54 65/1/54 70/1/54
f  66/1/37 71/1/37 72/1/37

# Mesh 'mesh1_mesh1-geometry' with 18 faces
g mesh1_mesh1-geometry
usemtl material_1_1_8
f  46/2/25 45/3/25 44/4/25
f  45/3/25 46/2/25 54/5/25
f  40/2/25 56/1/25 39/5/25
f  57/6/25 40/2/25 21/4/25
f  56/1/25 40/2/25 57/6/25
f  56/1/25 59/7/25 39/5/25
f  57/6/25 21/4/25 59/7/25
f  39/5/25 59/7/25 58/3/25
f  59/7/25 56/1/25 61/8/25
f  58/3/25 59/7/25 21/4/25
f  59/8/54 60/9/54 57/1/54
f  60/9/54 59/8/54 64/10/54
f  66/11/25 60/6/25 64/7/25
f  60/6/25 66/11/25 67/12/25
f  66/13/53 68/1/53 67/9/53
f  68/1/53 66/13/53 72/14/53
f  68/12/25 71/15/25 70/16/25
f  71/15/25 68/12/25 72/11/25

# Mesh 'mesh2_mesh2-geometry' with 10 faces
g mesh2_mesh2-geometry
usemtl material_4_24
f  73//37 74//37 75//37
f  74//37 73//37 76//37
f  77//53 73//53 75//53
f  78//24 76//24 73//24
f  79//54 74//54 76//54
f  73//53 77//53 78//53
f  76//24 78//24 79//24
f  74//54 79//54 80//54
f  79//51 77//51 80//51
f  77//51 79//51 78//51

# Mesh 'mesh2_mesh2-geometry' with 14 faces
g mesh2_mesh2-geometry
usemtl material_0_24
f  75//51 74//51 73//51
f  76//51 73//51 74//51
f  74//25 77//25 75//25
f  75//24 77//24 74//24
f  75//54 73//54 77//54
f  73//25 76//25 78//25
f  76//53 74//53 79//53
f  77//25 74//25 80//25
f  80//24 74//24 77//24
f  78//54 77//54 73//54
f  79//25 78//25 76//25
f  80//53 79//53 74//53
f  80//37 77//37 79//37
f  78//37 79//37 77//37

# Mesh 'mesh3_mesh3-geometry' with 3 faces
g mesh3_mesh3-geometry
usemtl material_0_0
l  77 75
l  80 77
l  74 80

