# File produced by Open Asset Import Library (http://www.assimp.sf.net)
# (assimp v3.2.202087883)

mtllib model_normalized.mtl

# 28 vertex positions
v -0.148192 -0.011761 -0.474216
v -0.148192 0.001411 -0.464336
v -0.148192 -0.011761 -0.464336
v -0.148192 0.011291 -0.464336
v -0.148192 0.001411 0.464336
v 0.148192 0.001411 -0.464336
v 0.148192 -0.011761 -0.474216
v -0.148192 -0.011761 0.474216
v -0.148192 0.011291 -0.474216
v -0.148192 0.011291 0.464336
v 0.148192 0.011291 -0.464336
v -0.148192 -0.011761 0.464336
v 0.148192 -0.011761 -0.464336
v -0.158072 -0.011761 0.474216
v -0.158072 0.011291 -0.474216
v 0.148192 -0.011761 0.464336
v 0.148192 0.001411 0.464336
v 0.148192 0.011291 -0.474216
v 0.158072 -0.011761 -0.474216
v -0.158072 -0.011761 -0.474216
v -0.148192 0.011291 0.474216
v 0.148192 0.011291 0.464336
v 0.158072 0.011291 0.474216
v -0.158072 0.011291 0.474216
v 0.148192 0.011291 0.474216
v 0.148192 -0.011761 0.474216
v 0.158072 0.011291 -0.474216
v 0.158072 -0.011761 0.474216

# 47 UV coordinates
vt 0 0 0
vt 0.025 0.066667 0
vt 2.375 0 0
vt 2.375 0.066667 0
vt 0.025 0 0
vt 0.775 0.066667 0
vt -0.775 4.8 0
vt -0.025 4.75 0
vt -0.025 4.8 0
vt -0.025 0 0
vt 0.025 0.116667 0
vt 2.375 0.116667 0
vt 0.775 0.116667 0
vt 0.775 0 0
vt -0.775 4.75 0
vt -0.025 0.116667 0
vt -0.775 0 0
vt -0.025 0.05 0
vt 0 0.116667 0
vt 0.775 4.75 0
vt 0.025 4.8 0
vt 0.025 4.75 0
vt 0.025 0.05 0
vt -0.025 0.066667 0
vt -0.775 0.066667 0
vt -2.375 0.066667 0
vt -2.375 0 0
vt -2.375 0.116667 0
vt -0.8 4.8 0
vt -0.775 0.116667 0
vt 0 4.8 0
vt -0.775 0.05 0
vt 0.775 4.8 0
vt 0.8 0 0
vt -0.8 0 0
vt -2.4 0.116667 0
vt -2.4 0 0
vt 0.775 0.05 0
vt 0.8 4.8 0
vt -0.8 0.116667 0
vt 2.4 0 0
vt 2.4 0.116667 0
vt 0.8 0.116667 0
vt -0.083333 7.91667 0
vt -0.083333 0.083333 0
vt -2.58333 7.91667 0
vt -2.58333 0.083333 0

# 6 vertex normals
vn 0.0254 0 0
vn -0.0254 -0 0
vn 0 0 -0.0254
vn 0 0.0254 0
vn 0 -0.0254 0
vn -0 -0 0.0254

# Mesh 'mesh1_mesh1-geometry' with 82 faces
g mesh1_mesh1-geometry
usemtl material_0_24
f  1/1/1 2/1/1 3/1/1
f  2/1/1 1/1/1 4/1/1
f  3/1/2 2/1/2 1/1/2
f  4/1/2 1/1/2 2/1/2
f  2/1/2 3/1/2 5/1/2
f  2/1/3 6/1/3 3/1/3
f  1/1/4 3/1/4 7/1/4
f  3/1/4 1/1/4 8/1/4
f  4/1/1 1/1/1 9/1/1
f  9/1/2 1/1/2 4/1/2
f  4/1/2 2/1/2 10/1/2
f  4/1/3 11/1/3 2/1/3
f  12/1/2 5/1/2 3/1/2
f  6/1/5 5/1/5 2/1/5
f  5/1/2 10/1/2 2/1/2
f  13/1/3 3/1/3 6/1/3
f  6/1/3 2/1/3 11/1/3
f  13/1/4 7/1/4 3/1/4
f  1/1/6 7/1/6 9/1/6
f  8/1/4 1/1/4 14/1/4
f  12/1/4 3/1/4 8/1/4
f  9/1/6 15/1/6 1/1/6
f  4/1/5 9/1/5 11/1/5
f  4/1/5 10/1/5 9/1/5
f  10/1/1 12/1/1 5/1/1
f  5/1/2 12/1/2 10/1/2
f  12/1/6 16/1/6 5/1/6
f  5/1/5 6/1/5 17/1/5
f  5/1/6 17/1/6 10/1/6
f  6/1/2 18/1/2 13/1/2
f  13/1/1 18/1/1 6/1/1
f  13/1/1 6/1/1 16/1/1
f  18/1/2 6/1/2 11/1/2
f  11/1/1 6/1/1 18/1/1
f  6/1/1 11/1/1 17/1/1
f  13/1/2 18/1/2 7/1/2
f  7/1/1 18/1/1 13/1/1
f  7/1/4 13/1/4 19/1/4
f  18/1/6 9/1/6 7/1/6
f  20/1/4 14/1/4 1/1/4
f  8/1/3 14/1/3 21/1/3
f  12/1/4 8/1/4 16/1/4
f  12/1/1 21/1/1 8/1/1
f  8/1/2 21/1/2 12/1/2
f  20/1/6 1/1/6 15/1/6
f  9/1/5 21/1/5 15/1/5
f  18/1/5 11/1/5 9/1/5
f  10/1/5 21/1/5 9/1/5
f  21/1/1 12/1/1 10/1/1
f  10/1/2 12/1/2 21/1/2
f  17/1/6 5/1/6 16/1/6
f  17/1/1 16/1/1 6/1/1
f  22/1/6 10/1/6 17/1/6
f  16/1/4 19/1/4 13/1/4
f  18/1/5 23/1/5 11/1/5
f  22/1/1 17/1/1 11/1/1
f  7/1/6 19/1/6 18/1/6
f  20/1/1 15/1/1 14/1/1
f  24/1/3 21/1/3 14/1/3
f  21/1/3 25/1/3 8/1/3
f  26/1/4 16/1/4 8/1/4
f  24/1/5 15/1/5 21/1/5
f  21/1/5 10/1/5 25/1/5
f  16/1/2 22/1/2 17/1/2
f  17/1/1 22/1/1 16/1/1
f  22/1/5 25/1/5 10/1/5
f  26/1/4 19/1/4 16/1/4
f  11/1/5 23/1/5 22/1/5
f  27/1/5 23/1/5 18/1/5
f  27/1/6 18/1/6 19/1/6
f  24/1/1 14/1/1 15/1/1
f  26/1/3 8/1/3 25/1/3
f  26/1/2 22/1/2 16/1/2
f  16/1/1 22/1/1 26/1/1
f  25/1/5 22/1/5 23/1/5
f  22/1/2 26/1/2 25/1/2
f  25/1/1 26/1/1 22/1/1
f  28/1/4 19/1/4 26/1/4
f  27/1/2 19/1/2 23/1/2
f  25/1/3 23/1/3 26/1/3
f  28/1/2 23/1/2 19/1/2
f  28/1/3 26/1/3 23/1/3

# Mesh 'mesh1_mesh1-geometry' with 56 faces
g mesh1_mesh1-geometry
usemtl material_1_1_8
f  5/2/1 3/3/1 2/4/1
f  3/5/6 6/6/6 2/2/6
f  7/7/5 3/8/5 1/9/5
f  8/10/5 1/9/5 3/8/5
f  10/11/1 2/4/1 4/12/1
f  2/2/6 11/13/6 4/11/6
f  3/3/1 5/2/1 12/5/1
f  2/4/1 10/11/1 5/2/1
f  6/6/6 3/5/6 13/14/6
f  11/13/6 2/2/6 6/6/6
f  3/8/5 7/7/5 13/15/5
f  9/16/3 7/17/3 1/10/3
f  14/1/5 1/9/5 8/10/5
f  8/10/5 3/8/5 12/18/5
f  1/10/3 15/19/3 9/16/3
f  11/20/4 9/21/4 4/22/4
f  9/21/4 10/23/4 4/22/4
f  5/24/3 16/17/3 12/10/3
f  10/16/3 17/25/3 5/24/3
f  16/10/2 6/26/2 13/27/2
f  17/24/2 11/28/2 6/26/2
f  19/29/5 13/15/5 7/7/5
f  7/17/3 9/16/3 18/30/3
f  1/9/5 14/1/5 20/31/5
f  21/11/6 14/1/6 8/5/6
f  16/32/5 8/10/5 12/18/5
f  15/19/3 1/10/3 20/1/3
f  15/31/4 21/5/4 9/21/4
f  9/21/4 11/20/4 18/33/4
f  9/21/4 21/5/4 10/23/4
f  16/17/3 5/24/3 17/25/3
f  6/26/2 16/10/2 17/24/2
f  17/25/3 10/16/3 22/30/3
f  13/15/5 19/29/5 16/32/5
f  11/20/4 23/34/4 18/33/4
f  11/28/2 17/24/2 22/16/2
f  18/30/3 19/35/3 7/17/3
f  14/1/2 15/36/2 20/37/2
f  14/1/6 21/11/6 24/19/6
f  8/5/6 25/13/6 21/11/6
f  8/10/5 16/32/5 26/17/5
f  21/5/4 15/31/4 24/1/4
f  25/14/4 10/23/4 21/5/4
f  10/23/4 25/14/4 22/38/4
f  16/32/5 19/29/5 26/17/5
f  22/38/4 23/34/4 11/20/4
f  18/33/4 23/34/4 27/39/4
f  19/35/3 18/30/3 27/40/3
f  15/36/2 14/1/2 24/19/2
f  25/13/6 8/5/6 26/14/6
f  23/34/4 22/38/4 25/14/4
f  26/17/5 19/29/5 28/35/5
f  23/19/1 19/41/1 27/42/1
f  26/14/6 23/43/6 25/13/6
f  19/41/1 23/19/1 28/1/1
f  23/43/6 26/14/6 28/34/6

# Mesh 'mesh1_mesh1-geometry' with 2 faces
g mesh1_mesh1-geometry
usemtl material_2_2_8
f  2/44/4 5/45/4 6/46/4
f  17/47/4 6/46/4 5/45/4

